<svg xmlns="http://www.w3.org/2000/svg" viewBox="0 0 800 560" width="800" height="560" role="img" aria-label="Signs of a pest problem article artwork">
<defs>
  <linearGradient id="b2" x1="0" y1="0" x2="1" y2="1"><stop offset="0" stop-color="#E8F7F2"/><stop offset="1" stop-color="#CFEDE2"/></linearGradient>
  <filter id="bn2" x="0" y="0" width="100%" height="100%">
    <feTurbulence type="fractalNoise" baseFrequency="0.9" numOctaves="3" stitchTiles="stitch"/>
    <feColorMatrix type="saturate" values="0"/>
    <feComponentTransfer><feFuncA type="linear" slope="0.09"/></feComponentTransfer>
  </filter>
</defs>
<rect width="800" height="560" fill="url(#b2)"/>
<g fill="#003B52" fill-opacity="0.18"><circle cx="90" cy="90" r="2.6"/><circle cx="90" cy="130" r="2.6"/><circle cx="90" cy="170" r="2.6"/><circle cx="90" cy="210" r="2.6"/><circle cx="90" cy="250" r="2.6"/><circle cx="90" cy="290" r="2.6"/><circle cx="90" cy="330" r="2.6"/><circle cx="90" cy="370" r="2.6"/><circle cx="90" cy="410" r="2.6"/><circle cx="130" cy="90" r="2.6"/><circle cx="130" cy="130" r="2.6"/><circle cx="130" cy="170" r="2.6"/><circle cx="130" cy="210" r="2.6"/><circle cx="130" cy="250" r="2.6"/><circle cx="130" cy="290" r="2.6"/><circle cx="130" cy="330" r="2.6"/><circle cx="130" cy="370" r="2.6"/><circle cx="130" cy="410" r="2.6"/><circle cx="170" cy="90" r="2.6"/><circle cx="170" cy="130" r="2.6"/><circle cx="170" cy="170" r="2.6"/><circle cx="170" cy="210" r="2.6"/><circle cx="170" cy="250" r="2.6"/><circle cx="170" cy="290" r="2.6"/><circle cx="170" cy="330" r="2.6"/><circle cx="170" cy="370" r="2.6"/><circle cx="170" cy="410" r="2.6"/><circle cx="210" cy="90" r="2.6"/><circle cx="210" cy="130" r="2.6"/><circle cx="210" cy="170" r="2.6"/><circle cx="210" cy="210" r="2.6"/><circle cx="210" cy="250" r="2.6"/><circle cx="210" cy="290" r="2.6"/><circle cx="210" cy="330" r="2.6"/><circle cx="210" cy="370" r="2.6"/><circle cx="210" cy="410" r="2.6"/><circle cx="250" cy="90" r="2.6"/><circle cx="250" cy="130" r="2.6"/><circle cx="250" cy="170" r="2.6"/><circle cx="250" cy="210" r="2.6"/><circle cx="250" cy="250" r="2.6"/><circle cx="250" cy="290" r="2.6"/><circle cx="250" cy="330" r="2.6"/><circle cx="250" cy="370" r="2.6"/><circle cx="250" cy="410" r="2.6"/><circle cx="290" cy="90" r="2.6"/><circle cx="290" cy="130" r="2.6"/><circle cx="290" cy="170" r="2.6"/><circle cx="290" cy="210" r="2.6"/><circle cx="290" cy="250" r="2.6"/><circle cx="290" cy="290" r="2.6"/><circle cx="290" cy="330" r="2.6"/><circle cx="290" cy="370" r="2.6"/><circle cx="290" cy="410" r="2.6"/><circle cx="330" cy="90" r="2.6"/><circle cx="330" cy="130" r="2.6"/><circle cx="330" cy="170" r="2.6"/><circle cx="330" cy="210" r="2.6"/><circle cx="330" cy="250" r="2.6"/><circle cx="330" cy="290" r="2.6"/><circle cx="330" cy="330" r="2.6"/><circle cx="330" cy="370" r="2.6"/><circle cx="330" cy="410" r="2.6"/><circle cx="370" cy="90" r="2.6"/><circle cx="370" cy="130" r="2.6"/><circle cx="370" cy="170" r="2.6"/><circle cx="370" cy="210" r="2.6"/><circle cx="370" cy="250" r="2.6"/><circle cx="370" cy="290" r="2.6"/><circle cx="370" cy="330" r="2.6"/><circle cx="370" cy="370" r="2.6"/><circle cx="370" cy="410" r="2.6"/><circle cx="410" cy="90" r="2.6"/><circle cx="410" cy="130" r="2.6"/><circle cx="410" cy="170" r="2.6"/><circle cx="410" cy="210" r="2.6"/><circle cx="410" cy="250" r="2.6"/><circle cx="410" cy="290" r="2.6"/><circle cx="410" cy="330" r="2.6"/><circle cx="410" cy="370" r="2.6"/><circle cx="410" cy="410" r="2.6"/><circle cx="450" cy="90" r="2.6"/><circle cx="450" cy="130" r="2.6"/><circle cx="450" cy="170" r="2.6"/><circle cx="450" cy="210" r="2.6"/><circle cx="450" cy="250" r="2.6"/><circle cx="450" cy="290" r="2.6"/><circle cx="450" cy="330" r="2.6"/><circle cx="450" cy="370" r="2.6"/><circle cx="450" cy="410" r="2.6"/><circle cx="490" cy="90" r="2.6"/><circle cx="490" cy="130" r="2.6"/><circle cx="490" cy="170" r="2.6"/><circle cx="490" cy="210" r="2.6"/><circle cx="490" cy="250" r="2.6"/><circle cx="490" cy="290" r="2.6"/><circle cx="490" cy="330" r="2.6"/><circle cx="490" cy="370" r="2.6"/><circle cx="490" cy="410" r="2.6"/><circle cx="530" cy="90" r="2.6"/><circle cx="530" cy="130" r="2.6"/><circle cx="530" cy="170" r="2.6"/><circle cx="530" cy="210" r="2.6"/><circle cx="530" cy="250" r="2.6"/><circle cx="530" cy="290" r="2.6"/><circle cx="530" cy="330" r="2.6"/><circle cx="530" cy="370" r="2.6"/><circle cx="530" cy="410" r="2.6"/><circle cx="570" cy="90" r="2.6"/><circle cx="570" cy="130" r="2.6"/><circle cx="570" cy="170" r="2.6"/><circle cx="570" cy="210" r="2.6"/><circle cx="570" cy="250" r="2.6"/><circle cx="570" cy="290" r="2.6"/><circle cx="570" cy="330" r="2.6"/><circle cx="570" cy="370" r="2.6"/><circle cx="570" cy="410" r="2.6"/></g><circle cx="600" cy="300" r="150" fill="none" stroke="#00B183" stroke-opacity=".5" stroke-width="2"/><circle cx="600" cy="300" r="96" fill="#00B183" fill-opacity=".14"/>
<rect width="800" height="560" filter="url(#bn2)" opacity=".5"/>
</svg>